<svg width="593" height="210" viewBox="0 0 593 210" fill="none" xmlns="http://www.w3.org/2000/svg">
<g filter="url(#filter0_d_748_2)">
<path d="M132.728 16.6239C135.416 17.0079 137.24 17.8239 138.2 19.0719C139.256 20.3199 139.784 21.9519 139.784 23.9679C139.784 30.5919 136.232 33.6639 129.128 33.1839L124.088 32.7519C118.424 32.2719 112.76 31.8879 107.096 31.5999C101.528 31.3119 95.672 31.1679 89.528 31.1679H83.048C81.896 45.3759 80.696 58.3359 79.448 70.0479L104.216 69.6159C107.768 69.6159 110.12 70.2399 111.272 71.4879C112.52 72.7359 113.144 74.4159 113.144 76.5279C113.144 79.7919 112.184 82.3839 110.264 84.3039C108.344 86.1279 105.608 87.0399 102.056 87.0399H77.432L76.568 93.2319C74.552 109.072 70.232 120.352 63.608 127.072C57.08 133.792 48.056 137.152 36.536 137.152C30.008 137.152 24.008 135.76 18.536 132.976C13.064 130.096 9.03196 126.64 6.43996 122.608C5.38396 120.976 4.85596 119.008 4.85596 116.704C4.85596 114.4 5.38396 112.384 6.43996 110.656C7.59196 108.928 8.98396 108.064 10.616 108.064C11.768 108.064 12.872 108.448 13.928 109.216C15.08 109.984 16.52 111.472 18.248 113.68C22.856 119.728 28.568 122.752 35.384 122.752C40.856 122.752 45.416 120.544 49.064 116.128C52.808 111.616 55.208 104.56 56.264 94.9599L57.128 87.0399H50.216C48.008 87.0399 46.088 86.4159 44.456 85.1679C42.92 83.9199 42.152 82.1439 42.152 79.8399C42.152 76.8639 42.92 74.6079 44.456 73.0719C45.992 71.4399 48.248 70.6239 51.224 70.6239C53.912 70.6239 56.552 70.5759 59.144 70.4799C60.296 59.9199 61.544 47.1039 62.888 32.0319C52.52 32.9919 45.224 34.6719 41 37.0719C36.776 39.4719 34.664 43.0239 34.664 47.7279C34.664 50.9919 35.624 54.1119 37.544 57.0879C38.12 57.9519 38.408 58.8159 38.408 59.6799C38.408 61.4079 37.448 62.9439 35.528 64.2879C33.608 65.5359 31.448 66.1599 29.048 66.1599C26.456 66.1599 24.248 65.3919 22.424 63.8559C21.272 62.8959 20.168 60.9279 19.112 57.9519C18.056 54.9759 17.528 51.6639 17.528 48.0159C17.528 36.1119 23.624 27.4719 35.816 22.0959C48.104 16.7199 66.008 14.0319 89.528 14.0319C105.848 14.0319 120.248 14.8959 132.728 16.6239ZM124.652 136.72C121.004 136.72 118.412 134.8 116.876 130.96C115.436 127.12 114.716 120.976 114.716 112.528C114.716 100.048 116.492 88.1919 120.044 76.9599C120.908 74.1759 122.3 72.1599 124.22 70.9119C126.236 69.5679 129.02 68.8959 132.572 68.8959C134.492 68.8959 135.836 69.1359 136.604 69.6159C137.372 70.0959 137.756 71.0079 137.756 72.3519C137.756 73.8879 137.036 77.3439 135.596 82.7199C134.636 86.5599 133.868 89.9199 133.292 92.7999C132.716 95.6799 132.236 99.2319 131.852 103.456C135.02 95.1999 138.572 88.4799 142.508 83.2959C146.444 78.1119 150.284 74.4159 154.028 72.2079C157.868 69.9999 161.372 68.8959 164.54 68.8959C170.78 68.8959 173.9 72.0159 173.9 78.2559C173.9 79.5039 173.468 82.5279 172.604 87.3279C171.836 91.1679 171.452 93.5679 171.452 94.5279C171.452 97.8879 172.652 99.5679 175.052 99.5679C177.74 99.5679 181.196 97.4559 185.42 93.2319C186.668 91.9839 187.964 91.3599 189.308 91.3599C190.556 91.3599 191.516 91.9359 192.188 93.0879C192.956 94.1439 193.34 95.5839 193.34 97.4079C193.34 100.96 192.38 103.744 190.46 105.76C187.772 108.544 184.604 110.944 180.956 112.96C177.404 114.88 173.612 115.84 169.58 115.84C164.492 115.84 160.604 114.544 157.916 111.952C155.324 109.36 154.028 105.856 154.028 101.44C154.028 99.9999 154.172 98.5599 154.46 97.1199C154.652 95.1999 154.748 93.9039 154.748 93.2319C154.748 91.6959 154.22 90.9279 153.164 90.9279C151.724 90.9279 149.804 92.5599 147.404 95.8239C145.1 98.9919 142.796 103.216 140.492 108.496C138.188 113.776 136.316 119.344 134.876 125.2C133.82 129.712 132.572 132.784 131.132 134.416C129.788 135.952 127.628 136.72 124.652 136.72ZM198.823 59.3919C194.791 59.3919 191.767 58.4799 189.751 56.6559C187.735 54.7359 186.727 52.0959 186.727 48.7359C186.727 45.3759 188.023 42.5919 190.615 40.3839C193.303 38.0799 196.615 36.9279 200.551 36.9279C204.103 36.9279 206.983 37.7919 209.191 39.5199C211.399 41.2479 212.503 43.6959 212.503 46.8639C212.503 50.7039 211.255 53.7759 208.759 56.0799C206.263 58.2879 202.951 59.3919 198.823 59.3919ZM197.671 136.72C191.431 136.72 186.871 134.512 183.991 130.096C181.207 125.68 179.815 119.824 179.815 112.528C179.815 108.208 180.343 102.688 181.399 95.9679C182.551 89.1519 183.991 82.8159 185.719 76.9599C186.583 73.8879 187.735 71.7759 189.175 70.6239C190.615 69.4719 192.919 68.8959 196.087 68.8959C200.983 68.8959 203.431 70.5279 203.431 73.7919C203.431 76.1919 202.519 81.7599 200.695 90.4959C198.391 101.056 197.239 108.208 197.239 111.952C197.239 114.832 197.623 117.04 198.391 118.576C199.159 120.112 200.455 120.88 202.279 120.88C204.007 120.88 206.167 119.68 208.759 117.28C211.351 114.88 214.807 111.088 219.127 105.904C220.279 104.56 221.575 103.888 223.015 103.888C224.263 103.888 225.223 104.464 225.895 105.616C226.663 106.768 227.047 108.352 227.047 110.368C227.047 114.208 226.135 117.184 224.311 119.296C214.807 130.912 205.927 136.72 197.671 136.72ZM297.188 103.888C298.436 103.888 299.396 104.464 300.068 105.616C300.836 106.768 301.22 108.352 301.22 110.368C301.22 114.208 300.308 117.184 298.484 119.296C294.548 124.096 290.228 128.224 285.524 131.68C280.82 135.04 276.164 136.72 271.556 136.72C264.26 136.72 258.692 132.448 254.852 123.904C250.82 128.992 247.268 132.4 244.196 134.128C241.22 135.856 237.716 136.72 233.684 136.72C227.828 136.72 222.98 134.56 219.14 130.24C215.396 125.824 213.524 120.112 213.524 113.104C213.524 105.424 215.156 98.3199 218.42 91.7919C221.684 85.1679 226.148 79.7919 231.812 75.6639C237.572 71.4399 244.004 68.9439 251.108 68.1759C252.932 49.5519 256.388 33.6639 261.476 20.5119C266.66 7.26389 273.428 0.639893 281.78 0.639893C285.908 0.639893 289.316 2.51189 292.004 6.2559C294.788 9.99989 296.18 15.6639 296.18 23.2479C296.18 33.9999 293.54 46.5759 288.26 60.9759C282.98 75.3759 275.924 90.1599 267.092 105.328C267.476 110.896 268.292 114.88 269.54 117.28C270.884 119.68 272.564 120.88 274.58 120.88C277.172 120.88 279.812 119.728 282.5 117.424C285.188 115.12 288.788 111.28 293.3 105.904C294.452 104.56 295.748 103.888 297.188 103.888ZM280.196 14.7519C278.372 14.7519 276.548 18.0159 274.724 24.5439C272.9 30.9759 271.316 39.4239 269.972 49.8879C268.724 60.3519 267.812 71.2959 267.236 82.7199C277.988 59.2959 283.364 40.4799 283.364 26.2719C283.364 22.6239 283.028 19.7919 282.356 17.7759C281.78 15.7599 281.06 14.7519 280.196 14.7519ZM238.724 122.176C240.548 122.176 242.372 121.456 244.196 120.016C246.02 118.48 248.324 115.696 251.108 111.664C250.148 106.48 249.668 100.672 249.668 94.2399C249.668 91.9359 249.764 88.1919 249.956 83.0079C244.676 84.6399 240.26 88.1919 236.708 93.6639C233.252 99.0399 231.524 105.04 231.524 111.664C231.524 118.672 233.924 122.176 238.724 122.176ZM361.828 104.176C363.076 104.176 364.036 104.8 364.708 106.048C365.476 107.2 365.859 108.688 365.859 110.512C365.859 112.72 365.524 114.448 364.852 115.696C364.18 116.944 363.124 118.048 361.684 119.008C353.428 124.576 347.38 128.704 343.54 131.392L334.324 137.584C330.676 157.456 325.876 173.056 319.924 184.384C314.068 195.808 306.58 201.52 297.46 201.52C292.564 201.52 288.58 199.984 285.508 196.912C282.436 193.936 280.899 190 280.899 185.104C280.899 178.288 283.588 170.944 288.964 163.072C294.34 155.296 304.42 145.696 319.203 134.272L320.068 128.656C318.436 131.248 316.276 133.264 313.588 134.704C310.996 136.048 308.404 136.72 305.812 136.72C299.86 136.72 295.108 134.56 291.556 130.24C288.004 125.92 286.228 120.256 286.228 113.248C286.228 105.568 288.004 98.3199 291.556 91.5039C295.108 84.5919 299.812 79.0719 305.668 74.9439C311.62 70.7199 317.908 68.6079 324.532 68.6079C326.644 68.6079 328.036 69.0399 328.708 69.9039C329.476 70.6719 330.1 72.1119 330.58 74.2239C332.404 73.8399 334.516 73.6479 336.916 73.6479C339.316 73.6479 340.996 74.0319 341.956 74.7999C343.012 75.4719 343.54 76.8639 343.54 78.9759C343.54 80.1279 343.492 81.0399 343.396 81.7119C343.012 84.6879 341.812 92.2239 339.796 104.32C339.412 106.624 338.98 109.168 338.5 111.952C338.116 114.64 337.684 117.52 337.204 120.592C344.596 114.832 351.7 109.744 358.516 105.328C359.764 104.56 360.868 104.176 361.828 104.176ZM310.996 122.176C313.204 122.176 315.316 120.832 317.332 118.144C319.348 115.456 320.788 111.616 321.652 106.624L326.26 81.9999C322.324 82.0959 318.676 83.6319 315.316 86.6079C311.956 89.4879 309.268 93.3279 307.252 98.1279C305.236 102.928 304.228 108.016 304.228 113.392C304.228 116.368 304.804 118.576 305.956 120.016C307.204 121.456 308.884 122.176 310.996 122.176ZM299.044 187.552C301.444 187.552 304.132 184.672 307.108 178.912C310.18 173.152 313.108 163.984 315.892 151.408C308.5 157.744 303.172 163.456 299.908 168.544C296.644 173.632 295.012 178.096 295.012 181.936C295.012 183.568 295.3 184.912 295.876 185.968C296.548 187.024 297.604 187.552 299.044 187.552ZM408.558 108.208C409.806 108.208 410.766 108.784 411.438 109.936C412.206 111.088 412.59 112.672 412.59 114.688C412.59 118.144 411.774 121.12 410.142 123.616C407.454 127.744 403.902 130.96 399.486 133.264C395.166 135.568 389.982 136.72 383.934 136.72C374.718 136.72 367.566 133.984 362.478 128.512C357.39 122.944 354.846 115.456 354.846 106.048C354.846 99.4239 356.238 93.2799 359.022 87.6159C361.806 81.8559 365.646 77.2959 370.542 73.9359C375.534 70.5759 381.15 68.8959 387.39 68.8959C392.958 68.8959 397.422 70.5759 400.782 73.9359C404.142 77.1999 405.822 81.6639 405.822 87.3279C405.822 93.9519 403.422 99.6639 398.622 104.464C393.918 109.168 385.854 112.912 374.43 115.696C376.734 120.112 380.622 122.32 386.094 122.32C390.03 122.32 393.246 121.408 395.742 119.584C398.334 117.76 401.31 114.688 404.67 110.368C405.822 108.928 407.118 108.208 408.558 108.208ZM384.942 83.0079C381.39 83.0079 378.366 85.0719 375.87 89.1999C373.47 93.3279 372.27 98.3199 372.27 104.176V104.464C377.934 103.12 382.398 101.104 385.662 98.4159C388.926 95.7279 390.558 92.6079 390.558 89.0559C390.558 87.2319 390.03 85.7919 388.974 84.7359C388.014 83.5839 386.67 83.0079 384.942 83.0079Z" fill="#2ECC71"/>
</g>
<g filter="url(#filter1_d_748_2)">
<path d="M473.665 95.6799C476.353 95.6799 477.697 97.6959 477.697 101.728C477.697 109.312 471.745 113.104 459.841 113.104C457.537 113.104 454.225 112.672 449.905 111.808C451.153 117.76 452.161 124.384 452.929 131.68C453.793 138.88 454.225 144.832 454.225 149.536C454.225 159.904 452.545 167.824 449.185 173.296C445.825 178.768 441.409 181.504 435.937 181.504C429.025 181.504 424.081 176.608 421.105 166.816C418.225 157.024 416.785 142.24 416.785 122.464C416.785 104.032 418.753 85.3599 422.689 66.4479C426.721 47.4399 432.193 31.7439 439.105 19.3599C446.113 6.87989 453.793 0.639893 462.145 0.639893C466.657 0.639893 470.161 2.65589 472.657 6.68789C475.249 10.7199 476.545 16.1439 476.545 22.9599C476.545 45.5199 463.057 70.0959 436.081 96.6879C435.121 106.096 434.641 114.352 434.641 121.456C434.641 131.344 434.977 141.472 435.649 151.84C436.321 162.304 437.425 167.536 438.961 167.536C441.841 167.536 443.281 162.544 443.281 152.56C443.281 145.072 442.753 137.824 441.697 130.816C440.737 123.808 439.393 116.416 437.665 108.64C437.569 107.392 437.953 105.808 438.817 103.888C439.777 101.968 440.929 100.288 442.273 98.8479C443.617 97.4079 444.817 96.6879 445.873 96.6879C447.793 96.6879 450.097 96.7839 452.785 96.9759C453.649 97.0719 454.657 97.1199 455.809 97.1199C459.649 97.1199 463.921 96.7839 468.625 96.1119C469.393 96.0159 470.209 95.9199 471.073 95.8239C471.937 95.7279 472.801 95.6799 473.665 95.6799ZM459.121 14.8959C457.393 14.8959 455.233 17.8239 452.641 23.6799C450.145 29.5359 447.649 37.3119 445.153 47.0079C442.657 56.6079 440.497 66.7839 438.673 77.5359C446.353 68.7999 452.257 59.7279 456.385 50.3199C460.513 40.8159 462.625 31.9359 462.721 23.6799C462.721 17.8239 461.521 14.8959 459.121 14.8959ZM481.522 136.72C477.202 136.72 473.65 134.752 470.866 130.816C468.178 126.784 466.834 121.792 466.834 115.84C466.834 108.64 467.314 102.064 468.274 96.1119C469.234 90.0639 470.818 83.6799 473.026 76.9599C473.986 74.0799 475.33 72.0159 477.058 70.7679C478.786 69.5199 481.522 68.8959 485.266 68.8959C487.378 68.8959 488.818 69.2319 489.586 69.9039C490.45 70.5759 490.882 71.5839 490.882 72.9279C490.882 73.6959 490.354 76.2879 489.298 80.7039C488.338 84.2559 487.57 87.4719 486.994 90.3519C485.074 100.432 484.114 107.152 484.114 110.512C484.114 112.528 484.354 113.968 484.834 114.832C485.314 115.6 486.082 115.984 487.138 115.984C488.578 115.984 490.354 114.544 492.466 111.664C494.674 108.784 496.978 104.416 499.378 98.5599C501.874 92.7039 504.274 85.5039 506.578 76.9599C507.346 74.0799 508.498 72.0159 510.034 70.7679C511.666 69.5199 514.066 68.8959 517.234 68.8959C519.442 68.8959 520.978 69.1839 521.842 69.7599C522.706 70.2399 523.138 71.1999 523.138 72.6399C523.138 75.0399 521.938 81.6159 519.538 92.3679C516.85 104.656 515.506 112.24 515.506 115.12C515.506 116.944 515.89 118.384 516.658 119.44C517.426 120.4 518.434 120.88 519.682 120.88C521.602 120.88 523.858 119.728 526.45 117.424C529.138 115.024 532.69 111.184 537.106 105.904C538.258 104.56 539.554 103.888 540.994 103.888C542.242 103.888 543.202 104.464 543.874 105.616C544.642 106.768 545.026 108.352 545.026 110.368C545.026 114.208 544.114 117.184 542.29 119.296C538.162 124.384 533.698 128.56 528.898 131.824C524.194 135.088 518.818 136.72 512.77 136.72C508.162 136.72 504.754 134.944 502.546 131.392C500.434 127.84 499.378 122.848 499.378 116.416C497.746 122.944 495.298 127.984 492.034 131.536C488.77 134.992 485.266 136.72 481.522 136.72ZM574.966 115.696C576.022 114.736 577.078 114.256 578.134 114.256C579.286 114.256 580.198 114.928 580.87 116.272C581.638 117.52 582.022 119.056 582.022 120.88C582.022 124.912 580.582 128.128 577.702 130.528C572.71 134.656 567.046 136.72 560.71 136.72C551.59 136.72 544.918 132.928 540.694 125.344C536.47 117.664 534.358 107.68 534.358 95.3919C534.358 83.6799 535.846 70.3359 538.822 55.3599C541.894 40.3839 546.358 27.5199 552.214 16.7679C558.166 6.01589 565.222 0.639893 573.382 0.639893C577.99 0.639893 581.59 2.79989 584.182 7.11989C586.87 11.3439 588.214 17.4399 588.214 25.4079C588.214 36.8319 585.046 50.0799 578.71 65.1519C572.47 80.2239 563.926 95.1039 553.078 109.792C553.75 113.728 554.95 116.56 556.678 118.288C558.406 120.016 560.758 120.88 563.734 120.88C565.366 120.88 567.19 120.4 569.206 119.44C571.318 118.48 573.238 117.232 574.966 115.696ZM570.214 14.8959C568.006 14.8959 565.51 18.8799 562.726 26.8479C559.942 34.8159 557.494 44.7039 555.382 56.5119C553.27 68.3199 552.118 79.6479 551.926 90.4959C558.742 79.2639 564.166 68.0319 568.198 56.7999C572.23 45.4719 574.246 35.1519 574.246 25.8399C574.246 18.5439 572.902 14.8959 570.214 14.8959Z" fill="#292929"/>
</g>
<defs>
<filter id="filter0_d_748_2" x="0.855957" y="0.639893" width="415.734" height="208.88" filterUnits="userSpaceOnUse" color-interpolation-filters="sRGB">
<feFlood flood-opacity="0" result="BackgroundImageFix"/>
<feColorMatrix in="SourceAlpha" type="matrix" values="0 0 0 0 0 0 0 0 0 0 0 0 0 0 0 0 0 0 127 0" result="hardAlpha"/>
<feOffset dy="4"/>
<feGaussianBlur stdDeviation="2"/>
<feComposite in2="hardAlpha" operator="out"/>
<feColorMatrix type="matrix" values="0 0 0 0 0 0 0 0 0 0 0 0 0 0 0 0 0 0 0.25 0"/>
<feBlend mode="normal" in2="BackgroundImageFix" result="effect1_dropShadow_748_2"/>
<feBlend mode="normal" in="SourceGraphic" in2="effect1_dropShadow_748_2" result="shape"/>
</filter>
<filter id="filter1_d_748_2" x="412.785" y="0.639893" width="179.429" height="188.864" filterUnits="userSpaceOnUse" color-interpolation-filters="sRGB">
<feFlood flood-opacity="0" result="BackgroundImageFix"/>
<feColorMatrix in="SourceAlpha" type="matrix" values="0 0 0 0 0 0 0 0 0 0 0 0 0 0 0 0 0 0 127 0" result="hardAlpha"/>
<feOffset dy="4"/>
<feGaussianBlur stdDeviation="2"/>
<feComposite in2="hardAlpha" operator="out"/>
<feColorMatrix type="matrix" values="0 0 0 0 0 0 0 0 0 0 0 0 0 0 0 0 0 0 0.25 0"/>
<feBlend mode="normal" in2="BackgroundImageFix" result="effect1_dropShadow_748_2"/>
<feBlend mode="normal" in="SourceGraphic" in2="effect1_dropShadow_748_2" result="shape"/>
</filter>
</defs>
</svg>
