<svg width="2500" height="110" viewBox="0 0 2500 110" fill="none" xmlns="http://www.w3.org/2000/svg">
<path d="M592.531 63.5L607.219 84.2812M592.531 63.5L608.156 43.0312C608.156 37.0937 608.312 4.125 592.531 4.125C576.75 4.125 576.906 34.2813 576.906 42.5625L592.531 63.5ZM592.531 97.875V88.5" stroke="#2F446A" stroke-width="2" stroke-linecap="round" stroke-linejoin="round"/>
<path d="M620.031 33.3437C620.812 29.4375 618.312 29.5937 616.281 32.25L592.531 63.5L568.781 31.625C566.594 28.6562 565.344 30.0625 565.812 32.25L575.5 79.125C576.437 83.6562 580.187 88.5 592.375 88.5C604.562 88.5 608.625 84.2812 610.344 79.125C612.062 73.9687 617.219 47.4062 620.031 33.3437V33.3437Z" stroke="#2F446A" stroke-width="2" stroke-linecap="round" stroke-linejoin="round"/>
<path d="M1650.22 5.25V20.875C1650.22 22.2812 1646.78 29.7813 1644.91 39.1563C1643.03 48.5313 1647.09 64.625 1659.59 77.125C1672.09 89.625 1688.5 92.75 1696.16 92.75C1708.97 92.75 1710.84 86.5 1709.91 83.5312C1708.97 80.5625 1705.69 79 1697.56 75.25C1689.44 71.5 1674.59 60.7188 1670.69 47.75C1666.78 34.7813 1662.25 26.3438 1659.59 24C1656.94 21.6562 1658.81 22.2812 1659.59 20.875C1660.38 19.4688 1662.72 5.25 1662.72 5.25M1643.97 5.25H1669.91H1643.97Z" stroke="#2F446A" stroke-width="2" stroke-linecap="round" stroke-linejoin="round"/>
<path d="M1665.84 5.25C1665.84 5.25 1669.12 21.5 1669.75 24.3125C1670.37 27.125 1673.34 27.75 1675.06 29C1679.91 32.5938 1685.22 40.0938 1688.66 43.0625C1692.09 46.0313 1699.28 53.8438 1709.59 55.25C1719.91 56.6563 1726.31 56.5 1731.47 55.25C1732.34 54.9177 1733.29 54.8449 1734.21 55.0404C1735.12 55.2359 1735.96 55.6914 1736.62 56.3519C1737.28 57.0124 1737.73 57.8498 1737.93 58.7632C1738.12 59.6766 1738.05 60.627 1737.72 61.5C1736.78 64 1730.37 69.7813 1724.28 71.8125C1718.19 73.8438 1701.31 75.875 1693.34 73.0625" stroke="#2F446A" stroke-width="2" stroke-linecap="round" stroke-linejoin="round"/>
<g clip-path="url(#clip0_2_2)">
<path d="M841.861 62.7869C851.319 53.3289 846.719 33.3941 831.586 18.2613C816.453 3.12849 796.519 -1.47185 787.061 7.98616C777.603 17.4442 782.203 37.379 797.336 52.5118C812.469 67.6446 832.403 72.2449 841.861 62.7869Z" stroke="#2F446A" stroke-width="2" stroke-linecap="round" stroke-linejoin="round"/>
<path d="M822.416 43.3415C825.589 40.1685 824.6 34.0347 820.206 29.6413C815.813 25.2479 809.679 24.2586 806.506 27.4316C803.333 30.6046 804.322 36.7384 808.716 41.1318C813.109 45.5252 819.243 46.5145 822.416 43.3415Z" stroke="#2F446A" stroke-width="2" stroke-linecap="round" stroke-linejoin="round"/>
<path d="M787.031 8.125C777.656 17.5 765.469 36.875 768.75 58.4375C768.75 58.4375 770.312 66.0937 768.75 67.6562C768.131 68.2538 767.639 68.9698 767.302 69.7618C766.966 70.5537 766.793 71.4053 766.793 72.2656C766.793 73.126 766.966 73.9775 767.302 74.7695C767.639 75.5614 768.131 76.2775 768.75 76.875L773.281 81.25C773.879 81.869 774.595 82.3614 775.387 82.6977C776.179 83.0339 777.03 83.2072 777.891 83.2072C778.751 83.2072 779.603 83.0339 780.394 82.6977C781.186 82.3614 781.902 81.869 782.5 81.25C784.062 79.6875 791.719 81.25 791.719 81.25C813.281 84.5312 832.656 72.3437 842.031 62.9687" stroke="#2F446A" stroke-width="2" stroke-linecap="round" stroke-linejoin="round"/>
<path d="M766.875 72.9688L763.75 76.25C762.486 75.1104 760.821 74.5196 759.122 74.6075C757.422 74.6954 755.827 75.4548 754.688 76.7187C753.548 77.9827 752.957 79.6475 753.045 81.3471C753.133 83.0466 753.892 84.6416 755.156 85.7813C758.438 89.0625 759.688 88.125 760.938 89.2187C762.188 90.3125 761.563 92.1875 764.375 95C765.597 96.2225 767.256 96.9093 768.984 96.9093C770.713 96.9093 772.371 96.2225 773.594 95C774.816 93.7775 775.503 92.1195 775.503 90.3906C775.503 88.6618 774.816 87.0037 773.594 85.7813L773.125 85.4687L775.938 82.6563" stroke="#2F446A" stroke-width="2" stroke-linecap="round" stroke-linejoin="round"/>
</g>
<path d="M1245.31 4.25C1245.31 20.1875 1239.69 41.75 1207.81 41.75C1207.81 20.1875 1220.31 4.25 1245.31 4.25Z" stroke="#2F446A" stroke-width="2" stroke-linecap="round" stroke-linejoin="round"/>
<path d="M1240.63 25.6563C1245.11 23.9089 1249.88 23.0083 1254.69 23C1275.47 23 1292.19 39.0938 1292.19 58.9375C1292.19 78.7812 1275.47 94.875 1254.69 94.875C1233.91 94.875 1217.19 78.7812 1217.19 58.9375C1217.18 52.1015 1219.19 45.4154 1222.97 39.7188" stroke="#2F446A" stroke-width="2" stroke-linecap="round" stroke-linejoin="round"/>
<path d="M1254.69 38.625C1254.69 29.25 1254.06 8.15625 1264.06 1.125M1245.31 35.5C1247.66 34.4063 1253.12 35.1875 1254.69 38.625C1256.25 35.1875 1261.56 34.0938 1264.06 35.5H1245.31Z" stroke="#2F446A" stroke-width="2" stroke-linecap="round" stroke-linejoin="round"/>
<path d="M1512.88 63.125C1512.88 69.5313 1499 76 1484.75 77.5C1488.5 77.5 1511.5 73.5 1512.88 63.125ZM1512.88 63.125V38.125M1419.12 38.125V63.125C1419.12 69.5313 1430.69 75 1447.25 77.5" stroke="#2F446A" stroke-width="2" stroke-linecap="round" stroke-linejoin="round"/>
<path d="M1447.25 52.5C1430.69 50 1419.12 46.7188 1419.12 38.125C1419.12 29.5312 1440.06 22.5 1466 22.5C1491.94 22.5 1512.88 31.7188 1512.88 38.125C1512.88 44.5313 1501.31 50.1562 1484.75 52.5M1447.25 52.5L1466 38.125M1447.25 52.5V77.5L1466 66.25L1484.75 77.5V52.5M1466 38.125L1484.75 52.5M1466 38.125V52.5V66.4063" stroke="#2F446A" stroke-width="2" stroke-linecap="round" stroke-linejoin="round"/>
<path d="M1450.02 63.5886C1451.41 64.9346 1454.09 64.4191 1456.01 62.4372C1457.93 60.4552 1458.37 57.7574 1456.98 56.4114C1455.59 55.0654 1452.91 55.5809 1450.99 57.5628C1449.07 59.5448 1448.63 62.2426 1450.02 63.5886Z" stroke="#2F446A" stroke-width="2" stroke-linecap="round" stroke-linejoin="round"/>
<path d="M1437.01 32.3673C1437.14 34.2958 1439.48 35.7062 1442.23 35.5176C1444.99 35.329 1447.11 33.6127 1446.98 31.6843C1446.85 29.7558 1444.51 28.3453 1441.75 28.5339C1439 28.7225 1436.87 30.4388 1437.01 32.3673Z" stroke="#2F446A" stroke-width="2" stroke-linecap="round" stroke-linejoin="round"/>
<path d="M1501 42C1505.42 42 1509 40.2091 1509 38C1509 35.7909 1505.42 34 1501 34C1496.58 34 1493 35.7909 1493 38C1493 40.2091 1496.58 42 1501 42Z" stroke="#2F446A" stroke-width="2" stroke-linecap="round" stroke-linejoin="round"/>
<path d="M1032.25 22.125C1031 18.8438 1026 12.75 1026 12.75C1026 12.75 1020.84 18.8438 1019.75 22.125C1011.47 20.875 1001 25.25 1001 25.25C1001 25.25 1008.34 30.875 1013.5 31.5C1009.87 35.2602 1006.72 39.4594 1004.12 44C1004.12 44 1019.12 43.6875 1026 37.75C1031.7 41.2164 1038.11 43.3527 1044.75 44C1044.75 44 1040.53 33.8438 1038.5 31.5C1049.13 28.375 1051 25.25 1051 25.25C1051 25.25 1037.87 21.0313 1032.25 22.125V22.125Z" stroke="#2F446A" stroke-width="2" stroke-linecap="round" stroke-linejoin="round"/>
<path d="M1007.25 23.2188C996.625 23.6875 979.125 28.375 979.125 59.625C979.125 90.875 1008.81 98.6875 1026 94C1043.19 98.8437 1072.88 90.875 1072.88 59.625C1072.88 28.375 1055.38 24 1044.75 23.5312" stroke="#2F446A" stroke-width="2" stroke-linecap="round" stroke-linejoin="round"/>
<path d="M1883.43 75.3305L1876.71 82.0493C1875.45 80.9097 1873.78 80.3188 1872.09 80.4067C1870.39 80.4946 1868.79 81.2541 1867.65 82.518C1866.51 83.7819 1865.92 85.4468 1866.01 87.1463C1866.1 88.8459 1866.86 90.4409 1868.12 91.5805C1871.4 94.8618 1872.65 93.9243 1873.9 95.018C1875.15 96.1118 1874.53 97.9868 1877.34 100.799C1878.56 102.022 1880.22 102.709 1881.95 102.709C1882.8 102.709 1883.65 102.54 1884.44 102.212C1885.23 101.885 1885.95 101.405 1886.56 100.799C1887.16 100.194 1887.64 99.4753 1887.97 98.6845C1888.3 97.8936 1888.47 97.0459 1888.47 96.1899C1888.47 95.3338 1888.3 94.4862 1887.97 93.6953C1887.64 92.9044 1887.16 92.1858 1886.56 91.5805L1886.09 91.268L1892.81 84.5493" stroke="#2F446A" stroke-width="2" stroke-linecap="round" stroke-linejoin="round"/>
<path d="M1950.46 18.6117C1947.42 15.5645 1943.8 13.1472 1939.82 11.498C1935.84 9.84883 1931.57 9 1927.26 9C1922.95 9 1918.68 9.84883 1914.7 11.498C1910.72 13.1472 1907.1 15.5645 1904.06 18.6117L1901.56 21.268L1901.09 21.893L1899.53 23.9242C1889.84 38.4555 1889.06 60.018 1885.15 63.9242L1884.06 65.018C1883.33 65.7443 1882.74 66.6083 1882.35 67.5604C1881.95 68.5124 1881.75 69.5335 1881.75 70.5649C1881.75 71.5962 1881.95 72.6173 1882.35 73.5694C1882.74 74.5214 1883.33 75.3855 1884.06 76.1117L1892.96 85.018C1893.69 85.7502 1894.55 86.3315 1895.51 86.7281C1896.46 87.1247 1897.48 87.3289 1898.51 87.3289C1899.54 87.3289 1900.56 87.1247 1901.52 86.7281C1902.47 86.3315 1903.33 85.7502 1904.06 85.018L1905.15 83.9242C1909.37 79.7055 1932.49 80.1742 1947.81 67.518L1950.31 65.1742C1953.39 62.1348 1955.84 58.5158 1957.51 54.5258C1959.19 50.5357 1960.06 46.2534 1960.08 41.9255C1960.09 37.5976 1959.25 33.3096 1957.6 29.3084C1955.95 25.3072 1953.52 21.6718 1950.46 18.6117Z" stroke="#2F446A" stroke-width="2" stroke-linecap="round" stroke-linejoin="round"/>
<path d="M1931.87 21.9868C1932.73 21.9868 1933.43 21.2872 1933.43 20.4243C1933.43 19.5613 1932.73 18.8618 1931.87 18.8618C1931.01 18.8618 1930.31 19.5613 1930.31 20.4243C1930.31 21.2872 1931.01 21.9868 1931.87 21.9868Z" stroke="#2F446A" stroke-width="2" stroke-linecap="round" stroke-linejoin="round"/>
<path d="M1919.37 25.1118C1920.23 25.1118 1920.93 24.4122 1920.93 23.5493C1920.93 22.6863 1920.23 21.9868 1919.37 21.9868C1918.51 21.9868 1917.81 22.6863 1917.81 23.5493C1917.81 24.4122 1918.51 25.1118 1919.37 25.1118Z" stroke="#2F446A" stroke-width="2" stroke-linecap="round" stroke-linejoin="round"/>
<path d="M1931.56 35.125C1932.43 35.125 1933.12 34.4254 1933.12 33.5625C1933.12 32.6996 1932.43 32 1931.56 32C1930.7 32 1930 32.6996 1930 33.5625C1930 34.4254 1930.7 35.125 1931.56 35.125Z" stroke="#2F446A" stroke-width="2" stroke-linecap="round" stroke-linejoin="round"/>
<line y1="55" x2="571" y2="55" stroke="#2F446A" stroke-width="2"/>
<line x1="616" y1="55" x2="768" y2="55" stroke="#2F446A" stroke-width="2"/>
<line x1="846.008" y1="55" x2="979.008" y2="56" stroke="#2F446A" stroke-width="2"/>
<line x1="1073" y1="55" x2="1217" y2="55" stroke="#2F446A" stroke-width="2"/>
<line x1="1292" y1="55" x2="1419" y2="55" stroke="#2F446A" stroke-width="2"/>
<line x1="1513" y1="55" x2="1646" y2="55" stroke="#2F446A" stroke-width="2"/>
<line x1="1734" y1="55" x2="1888" y2="55" stroke="#2F446A" stroke-width="2"/>
<line x1="1956" y1="55" x2="2500" y2="55" stroke="#2F446A" stroke-width="2"/>
<defs>
<clipPath id="clip0_2_2">
<rect width="100" height="100" fill="white" transform="translate(750)"/>
</clipPath>
</defs>
</svg>
