<svg width="1000" height="1000" viewBox="0 0 1000 1000" fill="none" xmlns="http://www.w3.org/2000/svg">
<g clip-path="url(#clip0_682_116)">
<path d="M1000 0H0V1000H1000V0Z" fill="#F6FBEF"/>
<path fill-rule="evenodd" clip-rule="evenodd" d="M322.581 32.2581H354.839V96.7742H387.097V64.5161H451.613V96.7742H419.355V161.29H387.097V129.032H354.839V161.29H290.323V129.032H322.581V96.7742H290.323V64.5161H322.581V32.2581ZM451.613 32.2581H483.871V64.5161H451.613V32.2581ZM548.387 32.2581H580.645V64.5161H548.387V32.2581ZM612.903 32.2581H709.677V129.032H677.419V64.5161H645.161V96.7742H612.903V32.2581ZM483.871 64.5161H548.387V96.7742H580.645V129.032H612.903V161.29H645.161V129.032H677.419V193.548H580.645V290.323H548.387V322.581H419.355V225.806H451.613V290.323H483.871V225.806H516.129V258.065H548.387V225.806H516.129V193.548H548.387V161.29H483.871V193.548H419.355V161.29H451.613V129.032H516.129V96.7742H483.871V64.5161ZM354.839 161.29H387.097V258.065H354.839V161.29ZM290.323 193.548H322.581V258.065H290.323V193.548ZM612.903 225.806H645.161V290.323H612.903V225.806ZM677.419 225.806H709.677V290.323H741.935V322.581H774.194V290.323H806.452V322.581H838.71V387.097H870.968V419.355H903.226V451.613H838.71V419.355H806.452V387.097H741.935V354.839H709.677V387.097H677.419V354.839H645.161V322.581H677.419V225.806ZM32.2581 290.323H193.548V322.581H129.032V419.355H96.7742V322.581H32.2581V290.323ZM225.806 290.323H387.097V322.581H354.839V387.097H387.097V354.839H548.387V387.097H419.355V451.613H387.097V419.355H354.839V451.613H387.097V516.129H322.581V548.387H290.323V516.129H225.806V483.871H290.323V451.613H322.581V354.839H258.065V322.581H225.806V290.323ZM580.645 290.323H612.903V322.581H580.645V290.323ZM838.71 290.323H870.968V322.581H838.71V290.323ZM903.226 290.323H935.484V322.581H903.226V290.323ZM548.387 322.581H580.645V354.839H548.387V322.581ZM935.484 322.581H967.742V354.839H935.484V322.581ZM161.29 354.839H193.548V387.097H161.29V354.839ZM225.806 354.839H258.065V387.097H225.806V354.839ZM612.903 354.839H645.161V387.097H677.419V419.355H612.903V354.839ZM193.548 387.097H225.806V419.355H193.548V387.097ZM258.065 387.097H290.323V451.613H225.806V419.355H258.065V387.097ZM548.387 387.097H580.645V419.355H548.387V387.097ZM709.677 387.097H741.935V451.613H838.71V483.871H774.194V516.129H741.935V483.871H709.677V548.387H677.419V483.871H645.161V548.387H612.903V483.871H548.387V451.613H580.645V419.355H612.903V451.613H709.677V387.097ZM903.226 387.097H935.484V419.355H903.226V387.097ZM64.5161 419.355H96.7742V483.871H64.5161V419.355ZM161.29 419.355H193.548V451.613H161.29V419.355ZM451.613 419.355H516.129V483.871H419.355V451.613H451.613V419.355ZM129.032 451.613H161.29V483.871H193.548V516.129H225.806V548.387H258.065V580.645H161.29V516.129H96.7742V483.871H129.032V451.613ZM935.484 451.613H967.742V483.871H935.484V451.613ZM516.129 483.871H548.387V516.129H516.129V483.871ZM838.71 483.871H903.226V516.129H838.71V483.871ZM64.5161 516.129H96.7742V548.387H64.5161V516.129ZM419.355 516.129H451.613V548.387H483.871V612.903H548.387V645.161H580.645V677.419H645.161V645.161H677.419V709.677H645.161V741.935H580.645V774.194H516.129V741.935H548.387V709.677H451.613V741.935H419.355V709.677H387.097V741.935H322.581V774.194H290.323V709.677H161.29V677.419H258.065V645.161H290.323V677.419H387.097V645.161H322.581V548.387H387.097V580.645H354.839V612.903H451.613V580.645H419.355V516.129ZM419.355 645.161H516.129V677.419H419.355V645.161ZM483.871 516.129H516.129V548.387H483.871V516.129ZM548.387 516.129H580.645V548.387H548.387V516.129ZM774.194 516.129H806.452V548.387H774.194V516.129ZM903.226 516.129H935.484V548.387H903.226V516.129ZM96.7742 548.387H129.032V580.645H161.29V612.903H64.5161V709.677H32.2581V580.645H96.7742V548.387ZM580.645 548.387H612.903V580.645H580.645V548.387ZM838.71 548.387H903.226V645.161H870.968V580.645H838.71V548.387ZM258.065 580.645H290.323V612.903H258.065V580.645ZM612.903 580.645H709.677V612.903H645.161V645.161H612.903V580.645ZM741.935 580.645H838.71V645.161H774.194V612.903H741.935V580.645ZM935.484 580.645H967.742V612.903H935.484V580.645ZM193.548 612.903H258.065V645.161H193.548V612.903ZM709.677 612.903H741.935V677.419H709.677V612.903ZM96.7742 645.161H161.29V677.419H129.032V709.677H96.7742V645.161ZM903.226 645.161H935.484V677.419H967.742V741.935H903.226V774.194H838.71V709.677H870.968V677.419H903.226V645.161ZM645.161 741.935H677.419V806.452H645.161V741.935ZM322.581 774.194H419.355V806.452H483.871V774.194H516.129V806.452H612.903V838.71H580.645V935.484H548.387V967.742H451.613V935.484H516.129V870.968H548.387V838.71H516.129V870.968H483.871V838.71H451.613V935.484H419.355V870.968H387.097V903.226H354.839V870.968H322.581V903.226H354.839V967.742H290.323V806.452H322.581V838.71H387.097V806.452H322.581V774.194ZM870.968 806.452H903.226V838.71H935.484V806.452H967.742V870.968H935.484V935.484H903.226V903.226H870.968V935.484H838.71V903.226H741.935V870.968H838.71V838.71H870.968V806.452ZM645.161 838.71H709.677V903.226H741.935V935.484H838.71V967.742H709.677V935.484H677.419V903.226H645.161V838.71ZM612.903 903.226H645.161V935.484H612.903V903.226ZM580.645 935.484H612.903V967.742H580.645V935.484ZM645.161 935.484H677.419V967.742H645.161V935.484ZM870.968 935.484H903.226V967.742H870.968V935.484Z" fill="black"/>
<path fill-rule="evenodd" clip-rule="evenodd" d="M32.2581 32.2581H258.065V258.065H32.2581V32.2581ZM64.5161 64.5161H225.806V225.806H64.5161V64.5161ZM96.7742 96.7742H193.548V193.548H96.7742V96.7742ZM741.935 32.2581H967.742V258.065H741.935V32.2581ZM774.194 64.5161H935.484V225.806H774.194V64.5161ZM806.452 96.7742H903.226V193.548H806.452V96.7742ZM32.2581 741.935H258.065V967.742H32.2581V741.935ZM64.5161 774.194H225.806V935.484H64.5161V774.194ZM96.7742 806.452H193.548V903.226H96.7742V806.452ZM677.419 677.419H838.71V838.71H677.419V677.419ZM709.677 709.677H806.452V806.452H709.677V709.677ZM741.935 741.935H774.194V774.194H741.935V741.935Z" fill="black"/>
</g>
<defs>
<clipPath id="clip0_682_116">
<rect width="1000" height="1000" fill="white"/>
</clipPath>
</defs>
</svg>
